<svg xmlns="http://www.w3.org/2000/svg" version="1.1" xmlns:xlink="http://www.w3.org/1999/xlink" xmlns:svgjs="http://svgjs.dev/svgjs" viewBox="0 0 800 800"><defs><linearGradient gradientTransform="rotate(270)" x1="50%" y1="0%" x2="50%" y2="100%" id="sssquiggly-grad"><stop stop-color="hsl(206, 75%, 49%)" stop-opacity="1" offset="0%"></stop><stop stop-color="hsl(331, 90%, 56%)" stop-opacity="1" offset="100%"></stop></linearGradient></defs><g stroke-width="2" stroke="url(#sssquiggly-grad)" fill="none" stroke-linecap="round" transform="matrix(1,0,0,1,0,54.8867301940918)"><path d="M10,10C21.805555555555557,11.041666666666666,40.97222222222223,18.333333333333332,66.66666666666667,15C92.36111111111111,11.666666666666668,105.55555555555557,-6.416666666666667,133.33333333333334,-6C161.11111111111111,-5.583333333333333,172.22222222222223,20.75,200,17C227.77777777777777,13.25,238.8888888888889,-25.458333333333332,266.6666666666667,-24C294.44444444444446,-22.541666666666668,305.5555555555556,18.583333333333336,333.33333333333337,24C361.11111111111114,29.416666666666664,372.22222222222223,-3.208333333333334,400,2C427.77777777777777,7.208333333333334,438.8888888888889,53.166666666666664,466.6666666666667,49C494.44444444444446,44.833333333333336,505.5555555555556,-16.125,533.3333333333334,-18C561.1111111111111,-19.875,572.2222222222222,36.458333333333336,600,40C627.7777777777778,43.541666666666664,638.8888888888889,-2.875,666.6666666666667,-1C694.4444444444446,0.875,707.6388888888889,46.708333333333336,733.3333333333334,49C759.0277777777778,51.291666666666664,778.1944444444445,18.125,790,10"></path><path d="M10,10C21.805555555555557,11.041666666666666,40.97222222222223,18.333333333333332,66.66666666666667,15C92.36111111111111,11.666666666666668,105.55555555555557,-6.416666666666667,133.33333333333334,-6C161.11111111111111,-5.583333333333333,172.22222222222223,20.75,200,17C227.77777777777777,13.25,238.8888888888889,-25.458333333333332,266.6666666666667,-24C294.44444444444446,-22.541666666666668,305.5555555555556,18.583333333333336,333.33333333333337,24C361.11111111111114,29.416666666666664,372.22222222222223,-3.208333333333334,400,2C427.77777777777777,7.208333333333334,438.8888888888889,53.166666666666664,466.6666666666667,49C494.44444444444446,44.833333333333336,505.5555555555556,-16.125,533.3333333333334,-18C561.1111111111111,-19.875,572.2222222222222,36.458333333333336,600,40C627.7777777777778,43.541666666666664,638.8888888888889,-2.875,666.6666666666667,-1C694.4444444444446,0.875,707.6388888888889,46.708333333333336,733.3333333333334,49C759.0277777777778,51.291666666666664,778.1944444444445,18.125,790,10" transform="matrix(1,0,0,1,0,665)"></path><path d="M10,10C21.805555555555557,11.041666666666666,40.97222222222223,18.333333333333332,66.66666666666667,15C92.36111111111111,11.666666666666668,105.55555555555557,-6.416666666666667,133.33333333333334,-6C161.11111111111111,-5.583333333333333,172.22222222222223,20.75,200,17C227.77777777777777,13.25,238.8888888888889,-25.458333333333332,266.6666666666667,-24C294.44444444444446,-22.541666666666668,305.5555555555556,18.583333333333336,333.33333333333337,24C361.11111111111114,29.416666666666664,372.22222222222223,-3.208333333333334,400,2C427.77777777777777,7.208333333333334,438.8888888888889,53.166666666666664,466.6666666666667,49C494.44444444444446,44.833333333333336,505.5555555555556,-16.125,533.3333333333334,-18C561.1111111111111,-19.875,572.2222222222222,36.458333333333336,600,40C627.7777777777778,43.541666666666664,638.8888888888889,-2.875,666.6666666666667,-1C694.4444444444446,0.875,707.6388888888889,46.708333333333336,733.3333333333334,49C759.0277777777778,51.291666666666664,778.1944444444445,18.125,790,10" transform="matrix(1,0,0,1,0,630)"></path><path d="M10,10C21.805555555555557,11.041666666666666,40.97222222222223,18.333333333333332,66.66666666666667,15C92.36111111111111,11.666666666666668,105.55555555555557,-6.416666666666667,133.33333333333334,-6C161.11111111111111,-5.583333333333333,172.22222222222223,20.75,200,17C227.77777777777777,13.25,238.8888888888889,-25.458333333333332,266.6666666666667,-24C294.44444444444446,-22.541666666666668,305.5555555555556,18.583333333333336,333.33333333333337,24C361.11111111111114,29.416666666666664,372.22222222222223,-3.208333333333334,400,2C427.77777777777777,7.208333333333334,438.8888888888889,53.166666666666664,466.6666666666667,49C494.44444444444446,44.833333333333336,505.5555555555556,-16.125,533.3333333333334,-18C561.1111111111111,-19.875,572.2222222222222,36.458333333333336,600,40C627.7777777777778,43.541666666666664,638.8888888888889,-2.875,666.6666666666667,-1C694.4444444444446,0.875,707.6388888888889,46.708333333333336,733.3333333333334,49C759.0277777777778,51.291666666666664,778.1944444444445,18.125,790,10" transform="matrix(1,0,0,1,0,595)"></path><path d="M10,10C21.805555555555557,11.041666666666666,40.97222222222223,18.333333333333332,66.66666666666667,15C92.36111111111111,11.666666666666668,105.55555555555557,-6.416666666666667,133.33333333333334,-6C161.11111111111111,-5.583333333333333,172.22222222222223,20.75,200,17C227.77777777777777,13.25,238.8888888888889,-25.458333333333332,266.6666666666667,-24C294.44444444444446,-22.541666666666668,305.5555555555556,18.583333333333336,333.33333333333337,24C361.11111111111114,29.416666666666664,372.22222222222223,-3.208333333333334,400,2C427.77777777777777,7.208333333333334,438.8888888888889,53.166666666666664,466.6666666666667,49C494.44444444444446,44.833333333333336,505.5555555555556,-16.125,533.3333333333334,-18C561.1111111111111,-19.875,572.2222222222222,36.458333333333336,600,40C627.7777777777778,43.541666666666664,638.8888888888889,-2.875,666.6666666666667,-1C694.4444444444446,0.875,707.6388888888889,46.708333333333336,733.3333333333334,49C759.0277777777778,51.291666666666664,778.1944444444445,18.125,790,10" transform="matrix(1,0,0,1,0,560)"></path><path d="M10,10C21.805555555555557,11.041666666666666,40.97222222222223,18.333333333333332,66.66666666666667,15C92.36111111111111,11.666666666666668,105.55555555555557,-6.416666666666667,133.33333333333334,-6C161.11111111111111,-5.583333333333333,172.22222222222223,20.75,200,17C227.77777777777777,13.25,238.8888888888889,-25.458333333333332,266.6666666666667,-24C294.44444444444446,-22.541666666666668,305.5555555555556,18.583333333333336,333.33333333333337,24C361.11111111111114,29.416666666666664,372.22222222222223,-3.208333333333334,400,2C427.77777777777777,7.208333333333334,438.8888888888889,53.166666666666664,466.6666666666667,49C494.44444444444446,44.833333333333336,505.5555555555556,-16.125,533.3333333333334,-18C561.1111111111111,-19.875,572.2222222222222,36.458333333333336,600,40C627.7777777777778,43.541666666666664,638.8888888888889,-2.875,666.6666666666667,-1C694.4444444444446,0.875,707.6388888888889,46.708333333333336,733.3333333333334,49C759.0277777777778,51.291666666666664,778.1944444444445,18.125,790,10" transform="matrix(1,0,0,1,0,525)"></path><path d="M10,10C21.805555555555557,11.041666666666666,40.97222222222223,18.333333333333332,66.66666666666667,15C92.36111111111111,11.666666666666668,105.55555555555557,-6.416666666666667,133.33333333333334,-6C161.11111111111111,-5.583333333333333,172.22222222222223,20.75,200,17C227.77777777777777,13.25,238.8888888888889,-25.458333333333332,266.6666666666667,-24C294.44444444444446,-22.541666666666668,305.5555555555556,18.583333333333336,333.33333333333337,24C361.11111111111114,29.416666666666664,372.22222222222223,-3.208333333333334,400,2C427.77777777777777,7.208333333333334,438.8888888888889,53.166666666666664,466.6666666666667,49C494.44444444444446,44.833333333333336,505.5555555555556,-16.125,533.3333333333334,-18C561.1111111111111,-19.875,572.2222222222222,36.458333333333336,600,40C627.7777777777778,43.541666666666664,638.8888888888889,-2.875,666.6666666666667,-1C694.4444444444446,0.875,707.6388888888889,46.708333333333336,733.3333333333334,49C759.0277777777778,51.291666666666664,778.1944444444445,18.125,790,10" transform="matrix(1,0,0,1,0,490)"></path><path d="M10,10C21.805555555555557,11.041666666666666,40.97222222222223,18.333333333333332,66.66666666666667,15C92.36111111111111,11.666666666666668,105.55555555555557,-6.416666666666667,133.33333333333334,-6C161.11111111111111,-5.583333333333333,172.22222222222223,20.75,200,17C227.77777777777777,13.25,238.8888888888889,-25.458333333333332,266.6666666666667,-24C294.44444444444446,-22.541666666666668,305.5555555555556,18.583333333333336,333.33333333333337,24C361.11111111111114,29.416666666666664,372.22222222222223,-3.208333333333334,400,2C427.77777777777777,7.208333333333334,438.8888888888889,53.166666666666664,466.6666666666667,49C494.44444444444446,44.833333333333336,505.5555555555556,-16.125,533.3333333333334,-18C561.1111111111111,-19.875,572.2222222222222,36.458333333333336,600,40C627.7777777777778,43.541666666666664,638.8888888888889,-2.875,666.6666666666667,-1C694.4444444444446,0.875,707.6388888888889,46.708333333333336,733.3333333333334,49C759.0277777777778,51.291666666666664,778.1944444444445,18.125,790,10" transform="matrix(1,0,0,1,0,455)"></path><path d="M10,10C21.805555555555557,11.041666666666666,40.97222222222223,18.333333333333332,66.66666666666667,15C92.36111111111111,11.666666666666668,105.55555555555557,-6.416666666666667,133.33333333333334,-6C161.11111111111111,-5.583333333333333,172.22222222222223,20.75,200,17C227.77777777777777,13.25,238.8888888888889,-25.458333333333332,266.6666666666667,-24C294.44444444444446,-22.541666666666668,305.5555555555556,18.583333333333336,333.33333333333337,24C361.11111111111114,29.416666666666664,372.22222222222223,-3.208333333333334,400,2C427.77777777777777,7.208333333333334,438.8888888888889,53.166666666666664,466.6666666666667,49C494.44444444444446,44.833333333333336,505.5555555555556,-16.125,533.3333333333334,-18C561.1111111111111,-19.875,572.2222222222222,36.458333333333336,600,40C627.7777777777778,43.541666666666664,638.8888888888889,-2.875,666.6666666666667,-1C694.4444444444446,0.875,707.6388888888889,46.708333333333336,733.3333333333334,49C759.0277777777778,51.291666666666664,778.1944444444445,18.125,790,10" transform="matrix(1,0,0,1,0,420)"></path><path d="M10,10C21.805555555555557,11.041666666666666,40.97222222222223,18.333333333333332,66.66666666666667,15C92.36111111111111,11.666666666666668,105.55555555555557,-6.416666666666667,133.33333333333334,-6C161.11111111111111,-5.583333333333333,172.22222222222223,20.75,200,17C227.77777777777777,13.25,238.8888888888889,-25.458333333333332,266.6666666666667,-24C294.44444444444446,-22.541666666666668,305.5555555555556,18.583333333333336,333.33333333333337,24C361.11111111111114,29.416666666666664,372.22222222222223,-3.208333333333334,400,2C427.77777777777777,7.208333333333334,438.8888888888889,53.166666666666664,466.6666666666667,49C494.44444444444446,44.833333333333336,505.5555555555556,-16.125,533.3333333333334,-18C561.1111111111111,-19.875,572.2222222222222,36.458333333333336,600,40C627.7777777777778,43.541666666666664,638.8888888888889,-2.875,666.6666666666667,-1C694.4444444444446,0.875,707.6388888888889,46.708333333333336,733.3333333333334,49C759.0277777777778,51.291666666666664,778.1944444444445,18.125,790,10" transform="matrix(1,0,0,1,0,385)"></path><path d="M10,10C21.805555555555557,11.041666666666666,40.97222222222223,18.333333333333332,66.66666666666667,15C92.36111111111111,11.666666666666668,105.55555555555557,-6.416666666666667,133.33333333333334,-6C161.11111111111111,-5.583333333333333,172.22222222222223,20.75,200,17C227.77777777777777,13.25,238.8888888888889,-25.458333333333332,266.6666666666667,-24C294.44444444444446,-22.541666666666668,305.5555555555556,18.583333333333336,333.33333333333337,24C361.11111111111114,29.416666666666664,372.22222222222223,-3.208333333333334,400,2C427.77777777777777,7.208333333333334,438.8888888888889,53.166666666666664,466.6666666666667,49C494.44444444444446,44.833333333333336,505.5555555555556,-16.125,533.3333333333334,-18C561.1111111111111,-19.875,572.2222222222222,36.458333333333336,600,40C627.7777777777778,43.541666666666664,638.8888888888889,-2.875,666.6666666666667,-1C694.4444444444446,0.875,707.6388888888889,46.708333333333336,733.3333333333334,49C759.0277777777778,51.291666666666664,778.1944444444445,18.125,790,10" transform="matrix(1,0,0,1,0,350)"></path><path d="M10,10C21.805555555555557,11.041666666666666,40.97222222222223,18.333333333333332,66.66666666666667,15C92.36111111111111,11.666666666666668,105.55555555555557,-6.416666666666667,133.33333333333334,-6C161.11111111111111,-5.583333333333333,172.22222222222223,20.75,200,17C227.77777777777777,13.25,238.8888888888889,-25.458333333333332,266.6666666666667,-24C294.44444444444446,-22.541666666666668,305.5555555555556,18.583333333333336,333.33333333333337,24C361.11111111111114,29.416666666666664,372.22222222222223,-3.208333333333334,400,2C427.77777777777777,7.208333333333334,438.8888888888889,53.166666666666664,466.6666666666667,49C494.44444444444446,44.833333333333336,505.5555555555556,-16.125,533.3333333333334,-18C561.1111111111111,-19.875,572.2222222222222,36.458333333333336,600,40C627.7777777777778,43.541666666666664,638.8888888888889,-2.875,666.6666666666667,-1C694.4444444444446,0.875,707.6388888888889,46.708333333333336,733.3333333333334,49C759.0277777777778,51.291666666666664,778.1944444444445,18.125,790,10" transform="matrix(1,0,0,1,0,315)"></path><path d="M10,10C21.805555555555557,11.041666666666666,40.97222222222223,18.333333333333332,66.66666666666667,15C92.36111111111111,11.666666666666668,105.55555555555557,-6.416666666666667,133.33333333333334,-6C161.11111111111111,-5.583333333333333,172.22222222222223,20.75,200,17C227.77777777777777,13.25,238.8888888888889,-25.458333333333332,266.6666666666667,-24C294.44444444444446,-22.541666666666668,305.5555555555556,18.583333333333336,333.33333333333337,24C361.11111111111114,29.416666666666664,372.22222222222223,-3.208333333333334,400,2C427.77777777777777,7.208333333333334,438.8888888888889,53.166666666666664,466.6666666666667,49C494.44444444444446,44.833333333333336,505.5555555555556,-16.125,533.3333333333334,-18C561.1111111111111,-19.875,572.2222222222222,36.458333333333336,600,40C627.7777777777778,43.541666666666664,638.8888888888889,-2.875,666.6666666666667,-1C694.4444444444446,0.875,707.6388888888889,46.708333333333336,733.3333333333334,49C759.0277777777778,51.291666666666664,778.1944444444445,18.125,790,10" transform="matrix(1,0,0,1,0,280)"></path><path d="M10,10C21.805555555555557,11.041666666666666,40.97222222222223,18.333333333333332,66.66666666666667,15C92.36111111111111,11.666666666666668,105.55555555555557,-6.416666666666667,133.33333333333334,-6C161.11111111111111,-5.583333333333333,172.22222222222223,20.75,200,17C227.77777777777777,13.25,238.8888888888889,-25.458333333333332,266.6666666666667,-24C294.44444444444446,-22.541666666666668,305.5555555555556,18.583333333333336,333.33333333333337,24C361.11111111111114,29.416666666666664,372.22222222222223,-3.208333333333334,400,2C427.77777777777777,7.208333333333334,438.8888888888889,53.166666666666664,466.6666666666667,49C494.44444444444446,44.833333333333336,505.5555555555556,-16.125,533.3333333333334,-18C561.1111111111111,-19.875,572.2222222222222,36.458333333333336,600,40C627.7777777777778,43.541666666666664,638.8888888888889,-2.875,666.6666666666667,-1C694.4444444444446,0.875,707.6388888888889,46.708333333333336,733.3333333333334,49C759.0277777777778,51.291666666666664,778.1944444444445,18.125,790,10" transform="matrix(1,0,0,1,0,245)"></path><path d="M10,10C21.805555555555557,11.041666666666666,40.97222222222223,18.333333333333332,66.66666666666667,15C92.36111111111111,11.666666666666668,105.55555555555557,-6.416666666666667,133.33333333333334,-6C161.11111111111111,-5.583333333333333,172.22222222222223,20.75,200,17C227.77777777777777,13.25,238.8888888888889,-25.458333333333332,266.6666666666667,-24C294.44444444444446,-22.541666666666668,305.5555555555556,18.583333333333336,333.33333333333337,24C361.11111111111114,29.416666666666664,372.22222222222223,-3.208333333333334,400,2C427.77777777777777,7.208333333333334,438.8888888888889,53.166666666666664,466.6666666666667,49C494.44444444444446,44.833333333333336,505.5555555555556,-16.125,533.3333333333334,-18C561.1111111111111,-19.875,572.2222222222222,36.458333333333336,600,40C627.7777777777778,43.541666666666664,638.8888888888889,-2.875,666.6666666666667,-1C694.4444444444446,0.875,707.6388888888889,46.708333333333336,733.3333333333334,49C759.0277777777778,51.291666666666664,778.1944444444445,18.125,790,10" transform="matrix(1,0,0,1,0,210)"></path><path d="M10,10C21.805555555555557,11.041666666666666,40.97222222222223,18.333333333333332,66.66666666666667,15C92.36111111111111,11.666666666666668,105.55555555555557,-6.416666666666667,133.33333333333334,-6C161.11111111111111,-5.583333333333333,172.22222222222223,20.75,200,17C227.77777777777777,13.25,238.8888888888889,-25.458333333333332,266.6666666666667,-24C294.44444444444446,-22.541666666666668,305.5555555555556,18.583333333333336,333.33333333333337,24C361.11111111111114,29.416666666666664,372.22222222222223,-3.208333333333334,400,2C427.77777777777777,7.208333333333334,438.8888888888889,53.166666666666664,466.6666666666667,49C494.44444444444446,44.833333333333336,505.5555555555556,-16.125,533.3333333333334,-18C561.1111111111111,-19.875,572.2222222222222,36.458333333333336,600,40C627.7777777777778,43.541666666666664,638.8888888888889,-2.875,666.6666666666667,-1C694.4444444444446,0.875,707.6388888888889,46.708333333333336,733.3333333333334,49C759.0277777777778,51.291666666666664,778.1944444444445,18.125,790,10" transform="matrix(1,0,0,1,0,175)"></path><path d="M10,10C21.805555555555557,11.041666666666666,40.97222222222223,18.333333333333332,66.66666666666667,15C92.36111111111111,11.666666666666668,105.55555555555557,-6.416666666666667,133.33333333333334,-6C161.11111111111111,-5.583333333333333,172.22222222222223,20.75,200,17C227.77777777777777,13.25,238.8888888888889,-25.458333333333332,266.6666666666667,-24C294.44444444444446,-22.541666666666668,305.5555555555556,18.583333333333336,333.33333333333337,24C361.11111111111114,29.416666666666664,372.22222222222223,-3.208333333333334,400,2C427.77777777777777,7.208333333333334,438.8888888888889,53.166666666666664,466.6666666666667,49C494.44444444444446,44.833333333333336,505.5555555555556,-16.125,533.3333333333334,-18C561.1111111111111,-19.875,572.2222222222222,36.458333333333336,600,40C627.7777777777778,43.541666666666664,638.8888888888889,-2.875,666.6666666666667,-1C694.4444444444446,0.875,707.6388888888889,46.708333333333336,733.3333333333334,49C759.0277777777778,51.291666666666664,778.1944444444445,18.125,790,10" transform="matrix(1,0,0,1,0,140)"></path><path d="M10,10C21.805555555555557,11.041666666666666,40.97222222222223,18.333333333333332,66.66666666666667,15C92.36111111111111,11.666666666666668,105.55555555555557,-6.416666666666667,133.33333333333334,-6C161.11111111111111,-5.583333333333333,172.22222222222223,20.75,200,17C227.77777777777777,13.25,238.8888888888889,-25.458333333333332,266.6666666666667,-24C294.44444444444446,-22.541666666666668,305.5555555555556,18.583333333333336,333.33333333333337,24C361.11111111111114,29.416666666666664,372.22222222222223,-3.208333333333334,400,2C427.77777777777777,7.208333333333334,438.8888888888889,53.166666666666664,466.6666666666667,49C494.44444444444446,44.833333333333336,505.5555555555556,-16.125,533.3333333333334,-18C561.1111111111111,-19.875,572.2222222222222,36.458333333333336,600,40C627.7777777777778,43.541666666666664,638.8888888888889,-2.875,666.6666666666667,-1C694.4444444444446,0.875,707.6388888888889,46.708333333333336,733.3333333333334,49C759.0277777777778,51.291666666666664,778.1944444444445,18.125,790,10" transform="matrix(1,0,0,1,0,105)"></path><path d="M10,10C21.805555555555557,11.041666666666666,40.97222222222223,18.333333333333332,66.66666666666667,15C92.36111111111111,11.666666666666668,105.55555555555557,-6.416666666666667,133.33333333333334,-6C161.11111111111111,-5.583333333333333,172.22222222222223,20.75,200,17C227.77777777777777,13.25,238.8888888888889,-25.458333333333332,266.6666666666667,-24C294.44444444444446,-22.541666666666668,305.5555555555556,18.583333333333336,333.33333333333337,24C361.11111111111114,29.416666666666664,372.22222222222223,-3.208333333333334,400,2C427.77777777777777,7.208333333333334,438.8888888888889,53.166666666666664,466.6666666666667,49C494.44444444444446,44.833333333333336,505.5555555555556,-16.125,533.3333333333334,-18C561.1111111111111,-19.875,572.2222222222222,36.458333333333336,600,40C627.7777777777778,43.541666666666664,638.8888888888889,-2.875,666.6666666666667,-1C694.4444444444446,0.875,707.6388888888889,46.708333333333336,733.3333333333334,49C759.0277777777778,51.291666666666664,778.1944444444445,18.125,790,10" transform="matrix(1,0,0,1,0,70)"></path><path d="M10,10C21.805555555555557,11.041666666666666,40.97222222222223,18.333333333333332,66.66666666666667,15C92.36111111111111,11.666666666666668,105.55555555555557,-6.416666666666667,133.33333333333334,-6C161.11111111111111,-5.583333333333333,172.22222222222223,20.75,200,17C227.77777777777777,13.25,238.8888888888889,-25.458333333333332,266.6666666666667,-24C294.44444444444446,-22.541666666666668,305.5555555555556,18.583333333333336,333.33333333333337,24C361.11111111111114,29.416666666666664,372.22222222222223,-3.208333333333334,400,2C427.77777777777777,7.208333333333334,438.8888888888889,53.166666666666664,466.6666666666667,49C494.44444444444446,44.833333333333336,505.5555555555556,-16.125,533.3333333333334,-18C561.1111111111111,-19.875,572.2222222222222,36.458333333333336,600,40C627.7777777777778,43.541666666666664,638.8888888888889,-2.875,666.6666666666667,-1C694.4444444444446,0.875,707.6388888888889,46.708333333333336,733.3333333333334,49C759.0277777777778,51.291666666666664,778.1944444444445,18.125,790,10" transform="matrix(1,0,0,1,0,35)"></path></g></svg>